# xmcd
#
# Track frame offsets: 
#        150
#        15432
#        31180
#        42952
#        56895
#        68980
#        83150
#        96887
#        108607
#        123695
#        139125
#        151925
#        165497
#        184405
#        200530
#        214830
#        231370
#        249620
#        263330
#        277970
#
# Disc length: 3958 seconds
#
# Revision: 10
# Processed by: cddbd v1.5.2PL0 Copyright (c) Steve Scherf et al.
# Submitted via: ExactAudioCopy v0.99pb4
#
DISCID=1d0f7414
DTITLE=Keith Whitley - The Essential Keith Whitley
DYEAR=1996
DGENRE=Country
TTITLE0=Turn Me to Love
TTITLE1=Living Like There's No Tomorrow (Finally Got to Me Tonight)
TTITLE2=A Hard Act to Follow
TTITLE3=If a Broken Heart Could Kill
TTITLE4=If You Think I'm Crazy Now (You Should Have Seen Me When I Was
TTITLE4=a Kid)
TTITLE5=Don't Our Love Look Natural
TTITLE6=I Wonder Where You Are Tonight
TTITLE7=I've Got the Heart for You
TTITLE8=Ten Feet Away
TTITLE9=Miami, My Amy
TTITLE10=Hard Livin'
TTITLE11=Homecoming '63
TTITLE12=Don't Close Your Eyes
TTITLE13=I'm No Stranger to the Rain [Single Remix Version]
TTITLE14=Would These Arms Be in Your Way
TTITLE15=When You Say Nothing at All
TTITLE16=It Ain't Nothin'
TTITLE17=I'm Over You
TTITLE18=I Wonder Do You Think of Me
TTITLE19=I'm Losing You All over Again
EXTD=ID3G:   2
EXTT0=
EXTT1=
EXTT2=
EXTT3=
EXTT4=
EXTT5=
EXTT6=
EXTT7=
EXTT8=
EXTT9=
EXTT10=
EXTT11=
EXTT12=
EXTT13=
EXTT14=
EXTT15=
EXTT16=
EXTT17=
EXTT18=
EXTT19=
PLAYORDER=
